# xmcd
#
# Track frame offsets: 
#        150
#        34051
#        69438
#        114002
#        136429
#        173081
#        222771
#        249376
#        270058
#        293748
#        320021
#        338317
#
# Disc length: 4798 seconds
#
# Revision: 4
# Processed by: cddbd v1.5.2PL0 Copyright (c) Steve Scherf et al.
# Submitted via: ExactAudioCopy v1.0b1
#
DISCID=9d12bc0c
DTITLE=BeatleJazz - With A Little Help From Our Friends
DYEAR=2005
DGENRE=Contemporary Jazz
TTITLE0=Yes It Is
TTITLE1=Piggies (feat. John Scofield)
TTITLE2=Imagine (feat. Randy Brecker)
TTITLE3=Strawberry Fields Forever
TTITLE4=I Will (feat. John Scofield)
TTITLE5=Working Class Hero (feat. Mike Brecker)
TTITLE6=A Hard Day's Night (feat. Mike Stern)
TTITLE7=Across The Universe
TTITLE8=Lovely Rita
TTITLE9=And I Love Her (feat. Mike Stern)
TTITLE10=The End
TTITLE11=Chains
EXTD=YEAR: 2005
EXTT0=
EXTT1=
EXTT2=
EXTT3=
EXTT4=
EXTT5=
EXTT6=
EXTT7=
EXTT8=
EXTT9=
EXTT10=
EXTT11=
PLAYORDER=
